<svg xmlns="http://www.w3.org/2000/svg" width="110" viewBox="0 0 240 70.5" height="35" version="1.0"><g fill='#fff'><g><g><path d="M 13.578125 -19.609375 C 16.015625 -19.609375 17.953125 -18.894531 19.390625 -17.46875 C 20.835938 -16.050781 21.5625 -13.988281 21.5625 -11.28125 L 21.5625 0 L 18.9375 0 L 18.9375 -11.015625 C 18.9375 -13.035156 18.429688 -14.578125 17.421875 -15.640625 C 16.410156 -16.703125 14.96875 -17.234375 13.09375 -17.234375 C 11 -17.234375 9.335938 -16.609375 8.109375 -15.359375 C 6.890625 -14.117188 6.28125 -12.398438 6.28125 -10.203125 L 6.28125 0 L 3.65625 0 L 3.65625 -19.453125 L 6.171875 -19.453125 L 6.171875 -15.859375 C 6.890625 -17.046875 7.882812 -17.96875 9.15625 -18.625 C 10.425781 -19.28125 11.898438 -19.609375 13.578125 -19.609375 Z M 13.578125 -19.609375" transform="translate(10.854 36.692)"/></g></g></g><g fill='#fff'><g><g><path d="M 20.59375 -8.90625 L 4.328125 -8.90625 C 4.472656 -6.882812 5.25 -5.25 6.65625 -4 C 8.0625 -2.757812 9.835938 -2.140625 11.984375 -2.140625 C 13.191406 -2.140625 14.300781 -2.351562 15.3125 -2.78125 C 16.320312 -3.21875 17.195312 -3.859375 17.9375 -4.703125 L 19.421875 -3 C 18.554688 -1.957031 17.472656 -1.164062 16.171875 -0.625 C 14.878906 -0.0820312 13.457031 0.1875 11.90625 0.1875 C 9.90625 0.1875 8.132812 -0.234375 6.59375 -1.078125 C 5.0625 -1.929688 3.863281 -3.109375 3 -4.609375 C 2.132812 -6.117188 1.703125 -7.828125 1.703125 -9.734375 C 1.703125 -11.628906 2.113281 -13.328125 2.9375 -14.828125 C 3.757812 -16.335938 4.890625 -17.507812 6.328125 -18.34375 C 7.773438 -19.1875 9.398438 -19.609375 11.203125 -19.609375 C 13.003906 -19.609375 14.617188 -19.1875 16.046875 -18.34375 C 17.484375 -17.507812 18.609375 -16.34375 19.421875 -14.84375 C 20.234375 -13.351562 20.640625 -11.648438 20.640625 -9.734375 Z M 11.203125 -17.34375 C 9.328125 -17.34375 7.753906 -16.742188 6.484375 -15.546875 C 5.222656 -14.359375 4.503906 -12.800781 4.328125 -10.875 L 18.125 -10.875 C 17.945312 -12.800781 17.222656 -14.359375 15.953125 -15.546875 C 14.679688 -16.742188 13.097656 -17.34375 11.203125 -17.34375 Z M 11.203125 -17.34375" transform="translate(38.834 36.692)"/></g></g></g><g fill='#fff'><g><g><path d="M 8.875 0.1875 C 7.300781 0.1875 5.789062 -0.0390625 4.34375 -0.5 C 2.90625 -0.957031 1.78125 -1.53125 0.96875 -2.21875 L 2.140625 -4.296875 C 2.953125 -3.648438 3.972656 -3.125 5.203125 -2.71875 C 6.441406 -2.3125 7.726562 -2.109375 9.0625 -2.109375 C 10.832031 -2.109375 12.144531 -2.382812 13 -2.9375 C 13.851562 -3.488281 14.28125 -4.269531 14.28125 -5.28125 C 14.28125 -6 14.046875 -6.5625 13.578125 -6.96875 C 13.109375 -7.375 12.515625 -7.679688 11.796875 -7.890625 C 11.078125 -8.097656 10.128906 -8.300781 8.953125 -8.5 C 7.367188 -8.800781 6.097656 -9.101562 5.140625 -9.40625 C 4.179688 -9.71875 3.363281 -10.242188 2.6875 -10.984375 C 2.007812 -11.722656 1.671875 -12.742188 1.671875 -14.046875 C 1.671875 -15.679688 2.347656 -17.015625 3.703125 -18.046875 C 5.054688 -19.085938 6.941406 -19.609375 9.359375 -19.609375 C 10.617188 -19.609375 11.875 -19.441406 13.125 -19.109375 C 14.382812 -18.773438 15.421875 -18.335938 16.234375 -17.796875 L 15.09375 -15.6875 C 13.488281 -16.789062 11.578125 -17.34375 9.359375 -17.34375 C 7.679688 -17.34375 6.414062 -17.046875 5.5625 -16.453125 C 4.71875 -15.867188 4.296875 -15.09375 4.296875 -14.125 C 4.296875 -13.382812 4.535156 -12.789062 5.015625 -12.34375 C 5.492188 -11.90625 6.085938 -11.582031 6.796875 -11.375 C 7.515625 -11.164062 8.503906 -10.945312 9.765625 -10.71875 C 11.316406 -10.425781 12.5625 -10.128906 13.5 -9.828125 C 14.4375 -9.535156 15.238281 -9.03125 15.90625 -8.3125 C 16.570312 -7.601562 16.90625 -6.617188 16.90625 -5.359375 C 16.90625 -3.660156 16.195312 -2.3125 14.78125 -1.3125 C 13.363281 -0.3125 11.394531 0.1875 8.875 0.1875 Z M 8.875 0.1875" transform="translate(64.125 36.692)"/></g></g></g><g fill='#fff'><g><g><path d="M 13.90625 -1.1875 C 13.414062 -0.738281 12.804688 -0.394531 12.078125 -0.15625 C 11.347656 0.0703125 10.585938 0.1875 9.796875 0.1875 C 7.972656 0.1875 6.566406 -0.304688 5.578125 -1.296875 C 4.597656 -2.285156 4.109375 -3.675781 4.109375 -5.46875 L 4.109375 -17.234375 L 0.625 -17.234375 L 0.625 -19.453125 L 4.109375 -19.453125 L 4.109375 -23.703125 L 6.734375 -23.703125 L 6.734375 -19.453125 L 12.65625 -19.453125 L 12.65625 -17.234375 L 6.734375 -17.234375 L 6.734375 -5.625 C 6.734375 -4.46875 7.019531 -3.585938 7.59375 -2.984375 C 8.175781 -2.378906 9.007812 -2.078125 10.09375 -2.078125 C 10.632812 -2.078125 11.15625 -2.160156 11.65625 -2.328125 C 12.164062 -2.503906 12.609375 -2.75 12.984375 -3.0625 Z M 13.90625 -1.1875" transform="translate(85.164 36.692)"/></g></g></g><g fill='#fff'><g><g><path d="M 17.375 -2.1875 L 17.375 0 L 1.546875 0 L 1.546875 -1.734375 L 13.796875 -17.234375 L 1.78125 -17.234375 L 1.78125 -19.453125 L 17.15625 -19.453125 L 17.15625 -17.71875 L 4.921875 -2.1875 Z M 17.375 -2.1875" transform="translate(115.78 36.692)"/></g></g></g><g fill='#fff'><g><g><path d="M 11.609375 0.1875 C 9.734375 0.1875 8.046875 -0.234375 6.546875 -1.078125 C 5.046875 -1.929688 3.863281 -3.109375 3 -4.609375 C 2.132812 -6.117188 1.703125 -7.828125 1.703125 -9.734375 C 1.703125 -11.628906 2.132812 -13.328125 3 -14.828125 C 3.863281 -16.335938 5.046875 -17.507812 6.546875 -18.34375 C 8.046875 -19.1875 9.734375 -19.609375 11.609375 -19.609375 C 13.484375 -19.609375 15.171875 -19.1875 16.671875 -18.34375 C 18.179688 -17.507812 19.359375 -16.335938 20.203125 -14.828125 C 21.054688 -13.328125 21.484375 -11.628906 21.484375 -9.734375 C 21.484375 -7.828125 21.054688 -6.117188 20.203125 -4.609375 C 19.359375 -3.109375 18.179688 -1.929688 16.671875 -1.078125 C 15.171875 -0.234375 13.484375 0.1875 11.609375 0.1875 Z M 11.609375 -2.140625 C 12.992188 -2.140625 14.234375 -2.453125 15.328125 -3.078125 C 16.421875 -3.710938 17.273438 -4.609375 17.890625 -5.765625 C 18.515625 -6.929688 18.828125 -8.253906 18.828125 -9.734375 C 18.828125 -11.210938 18.515625 -12.53125 17.890625 -13.6875 C 17.273438 -14.84375 16.421875 -15.734375 15.328125 -16.359375 C 14.234375 -16.992188 12.992188 -17.3125 11.609375 -17.3125 C 10.234375 -17.3125 8.992188 -16.992188 7.890625 -16.359375 C 6.796875 -15.734375 5.929688 -14.84375 5.296875 -13.6875 C 4.671875 -12.53125 4.359375 -11.210938 4.359375 -9.734375 C 4.359375 -8.253906 4.671875 -6.929688 5.296875 -5.765625 C 5.929688 -4.609375 6.796875 -3.710938 7.890625 -3.078125 C 8.992188 -2.453125 10.234375 -2.140625 11.609375 -2.140625 Z M 11.609375 -2.140625" transform="translate(137.632 36.692)"/></g></g></g><g fill='#fff'><g><g><path d="M 11.609375 0.1875 C 9.734375 0.1875 8.046875 -0.234375 6.546875 -1.078125 C 5.046875 -1.929688 3.863281 -3.109375 3 -4.609375 C 2.132812 -6.117188 1.703125 -7.828125 1.703125 -9.734375 C 1.703125 -11.628906 2.132812 -13.328125 3 -14.828125 C 3.863281 -16.335938 5.046875 -17.507812 6.546875 -18.34375 C 8.046875 -19.1875 9.734375 -19.609375 11.609375 -19.609375 C 13.484375 -19.609375 15.171875 -19.1875 16.671875 -18.34375 C 18.179688 -17.507812 19.359375 -16.335938 20.203125 -14.828125 C 21.054688 -13.328125 21.484375 -11.628906 21.484375 -9.734375 C 21.484375 -7.828125 21.054688 -6.117188 20.203125 -4.609375 C 19.359375 -3.109375 18.179688 -1.929688 16.671875 -1.078125 C 15.171875 -0.234375 13.484375 0.1875 11.609375 0.1875 Z M 11.609375 -2.140625 C 12.992188 -2.140625 14.234375 -2.453125 15.328125 -3.078125 C 16.421875 -3.710938 17.273438 -4.609375 17.890625 -5.765625 C 18.515625 -6.929688 18.828125 -8.253906 18.828125 -9.734375 C 18.828125 -11.210938 18.515625 -12.53125 17.890625 -13.6875 C 17.273438 -14.84375 16.421875 -15.734375 15.328125 -16.359375 C 14.234375 -16.992188 12.992188 -17.3125 11.609375 -17.3125 C 10.234375 -17.3125 8.992188 -16.992188 7.890625 -16.359375 C 6.796875 -15.734375 5.929688 -14.84375 5.296875 -13.6875 C 4.671875 -12.53125 4.359375 -11.210938 4.359375 -9.734375 C 4.359375 -8.253906 4.671875 -6.929688 5.296875 -5.765625 C 5.929688 -4.609375 6.796875 -3.710938 7.890625 -3.078125 C 8.992188 -2.453125 10.234375 -2.140625 11.609375 -2.140625 Z M 11.609375 -2.140625" transform="translate(163.773 36.692)"/></g></g></g><g fill='#fff'><g><g><path d="M 27.921875 -19.609375 C 30.359375 -19.609375 32.273438 -18.90625 33.671875 -17.5 C 35.066406 -16.09375 35.765625 -14.019531 35.765625 -11.28125 L 35.765625 0 L 33.140625 0 L 33.140625 -11.015625 C 33.140625 -13.035156 32.648438 -14.578125 31.671875 -15.640625 C 30.703125 -16.703125 29.328125 -17.234375 27.546875 -17.234375 C 25.523438 -17.234375 23.9375 -16.609375 22.78125 -15.359375 C 21.625 -14.117188 21.046875 -12.398438 21.046875 -10.203125 L 21.046875 0 L 18.421875 0 L 18.421875 -11.015625 C 18.421875 -13.035156 17.929688 -14.578125 16.953125 -15.640625 C 15.984375 -16.703125 14.597656 -17.234375 12.796875 -17.234375 C 10.796875 -17.234375 9.207031 -16.609375 8.03125 -15.359375 C 6.863281 -14.117188 6.28125 -12.398438 6.28125 -10.203125 L 6.28125 0 L 3.65625 0 L 3.65625 -19.453125 L 6.171875 -19.453125 L 6.171875 -15.90625 C 6.867188 -17.082031 7.832031 -17.992188 9.0625 -18.640625 C 10.289062 -19.285156 11.707031 -19.609375 13.3125 -19.609375 C 14.9375 -19.609375 16.347656 -19.257812 17.546875 -18.5625 C 18.742188 -17.875 19.640625 -16.851562 20.234375 -15.5 C 20.941406 -16.78125 21.96875 -17.785156 23.3125 -18.515625 C 24.65625 -19.242188 26.191406 -19.609375 27.921875 -19.609375 Z M 27.921875 -19.609375" transform="translate(189.914 36.692)"/></g></g></g><g fill="#C60C30"><g><g><path d="M 8.390625 0 L 6.1875 -3.15625 C 5.914062 -3.132812 5.703125 -3.125 5.546875 -3.125 L 3 -3.125 L 3 0 L 1.53125 0 L 1.53125 -10.265625 L 5.546875 -10.265625 C 6.867188 -10.265625 7.910156 -9.945312 8.671875 -9.3125 C 9.429688 -8.675781 9.8125 -7.800781 9.8125 -6.6875 C 9.8125 -5.894531 9.613281 -5.21875 9.21875 -4.65625 C 8.832031 -4.101562 8.28125 -3.695312 7.5625 -3.4375 L 10 0 Z M 5.5 -4.375 C 6.425781 -4.375 7.132812 -4.570312 7.625 -4.96875 C 8.113281 -5.363281 8.359375 -5.9375 8.359375 -6.6875 C 8.359375 -7.425781 8.113281 -7.992188 7.625 -8.390625 C 7.132812 -8.785156 6.425781 -8.984375 5.5 -8.984375 L 3 -8.984375 L 3 -4.375 Z M 5.5 -4.375" transform="translate(54.767 59.405)"/></g></g></g><g fill="#C60C30"><g><g><path d="M 8.984375 -1.28125 L 8.984375 0 L 1.53125 0 L 1.53125 -10.265625 L 8.78125 -10.265625 L 8.78125 -8.984375 L 3 -8.984375 L 3 -5.828125 L 8.15625 -5.828125 L 8.15625 -4.59375 L 3 -4.59375 L 3 -1.28125 Z M 8.984375 -1.28125" transform="translate(69.24 59.405)"/></g></g></g><g fill="#C60C30"><g><g><path d="M 8.078125 -2.5625 L 2.625 -2.5625 L 1.5 0 L -0.015625 0 L 4.625 -10.265625 L 6.078125 -10.265625 L 10.75 0 L 9.203125 0 Z M 7.5625 -3.734375 L 5.34375 -8.765625 L 3.140625 -3.734375 Z M 7.5625 -3.734375" transform="translate(82.875 59.405)"/></g></g></g><g fill="#C60C30"><g><g><path d="M 1.53125 -10.265625 L 3 -10.265625 L 3 -1.28125 L 8.5625 -1.28125 L 8.5625 0 L 1.53125 0 Z M 1.53125 -10.265625" transform="translate(97.42 59.405)"/></g></g></g><g fill="#C60C30"><g><g><path d="M 3.578125 -8.984375 L 0.0625 -8.984375 L 0.0625 -10.265625 L 8.546875 -10.265625 L 8.546875 -8.984375 L 5.03125 -8.984375 L 5.03125 0 L 3.578125 0 Z M 3.578125 -8.984375" transform="translate(109.942 59.405)"/></g></g></g><g fill="#C60C30"><g><g><path d="M 5.46875 -3.546875 L 5.46875 0 L 4.015625 0 L 4.015625 -3.578125 L -0.0625 -10.265625 L 1.515625 -10.265625 L 4.796875 -4.84375 L 8.09375 -10.265625 L 9.546875 -10.265625 Z M 5.46875 -3.546875" transform="translate(122.36 59.405)"/></g></g></g><g fill="#C60C30"><g><g><path d="M 1.53125 -10.265625 L 3 -10.265625 L 3 0 L 1.53125 0 Z M 1.53125 -10.265625" transform="translate(143.417 59.405)"/></g></g></g><g fill="#C60C30"><g><g><path d="M 10.359375 -10.265625 L 10.359375 0 L 9.15625 0 L 3 -7.65625 L 3 0 L 1.53125 0 L 1.53125 -10.265625 L 2.734375 -10.265625 L 8.890625 -2.609375 L 8.890625 -10.265625 Z M 10.359375 -10.265625" transform="translate(151.775 59.405)"/></g></g></g><g fill="#C60C30"><g><g><path d="M 6.125 0.125 C 5.101562 0.125 4.175781 -0.101562 3.34375 -0.5625 C 2.519531 -1.019531 1.875 -1.644531 1.40625 -2.4375 C 0.9375 -3.238281 0.703125 -4.132812 0.703125 -5.125 C 0.703125 -6.125 0.9375 -7.019531 1.40625 -7.8125 C 1.875 -8.613281 2.523438 -9.238281 3.359375 -9.6875 C 4.191406 -10.144531 5.117188 -10.375 6.140625 -10.375 C 6.941406 -10.375 7.675781 -10.238281 8.34375 -9.96875 C 9.007812 -9.707031 9.578125 -9.3125 10.046875 -8.78125 L 9.09375 -7.859375 C 8.3125 -8.671875 7.347656 -9.078125 6.203125 -9.078125 C 5.441406 -9.078125 4.75 -8.90625 4.125 -8.5625 C 3.507812 -8.21875 3.03125 -7.742188 2.6875 -7.140625 C 2.34375 -6.546875 2.171875 -5.875 2.171875 -5.125 C 2.171875 -4.382812 2.34375 -3.710938 2.6875 -3.109375 C 3.03125 -2.515625 3.507812 -2.046875 4.125 -1.703125 C 4.75 -1.359375 5.441406 -1.1875 6.203125 -1.1875 C 7.347656 -1.1875 8.3125 -1.597656 9.09375 -2.421875 L 10.046875 -1.5 C 9.578125 -0.96875 9.003906 -0.5625 8.328125 -0.28125 C 7.660156 -0.0078125 6.925781 0.125 6.125 0.125 Z M 6.125 0.125" transform="translate(167.493 59.405)"/></g></g></g><g fill="#C60C30"><g><g><path d="M 1.671875 0.09375 C 1.398438 0.09375 1.164062 0 0.96875 -0.1875 C 0.769531 -0.382812 0.671875 -0.628906 0.671875 -0.921875 C 0.671875 -1.203125 0.769531 -1.4375 0.96875 -1.625 C 1.164062 -1.820312 1.398438 -1.921875 1.671875 -1.921875 C 1.941406 -1.921875 2.171875 -1.828125 2.359375 -1.640625 C 2.546875 -1.453125 2.640625 -1.210938 2.640625 -0.921875 C 2.640625 -0.628906 2.539062 -0.382812 2.34375 -0.1875 C 2.15625 0 1.929688 0.09375 1.671875 0.09375 Z M 1.671875 0.09375" transform="translate(181.906 59.405)"/></g></g></g></svg>