<svg xmlns="http://www.w3.org/2000/svg" xmlns:xlink="http://www.w3.org/1999/xlink" width="320" zoomAndPan="magnify" viewBox="0 0 240 70.499998" height="94" preserveAspectRatio="xMidYMid meet" version="1.0"><defs><g/></defs><g fill="#3b82f6" fill-opacity="1"><g transform="translate(10.520853, 54.387556)"><g><path d="M 26.4375 -10.25 C 26.4375 -6.914062 25.234375 -4.289062 22.828125 -2.375 C 20.429688 -0.457031 17.097656 0.5 12.828125 0.5 C 8.890625 0.5 5.40625 -0.238281 2.375 -1.71875 L 2.375 -8.984375 C 4.863281 -7.878906 6.96875 -7.097656 8.6875 -6.640625 C 10.414062 -6.179688 12 -5.953125 13.4375 -5.953125 C 15.144531 -5.953125 16.457031 -6.28125 17.375 -6.9375 C 18.289062 -7.59375 18.75 -8.570312 18.75 -9.875 C 18.75 -10.59375 18.546875 -11.234375 18.140625 -11.796875 C 17.742188 -12.359375 17.15625 -12.898438 16.375 -13.421875 C 15.59375 -13.953125 14 -14.789062 11.59375 -15.9375 C 9.332031 -16.988281 7.640625 -18.003906 6.515625 -18.984375 C 5.390625 -19.960938 4.488281 -21.097656 3.8125 -22.390625 C 3.132812 -23.691406 2.796875 -25.207031 2.796875 -26.9375 C 2.796875 -30.195312 3.898438 -32.757812 6.109375 -34.625 C 8.328125 -36.5 11.390625 -37.4375 15.296875 -37.4375 C 17.210938 -37.4375 19.039062 -37.207031 20.78125 -36.75 C 22.53125 -36.300781 24.351562 -35.664062 26.25 -34.84375 L 23.734375 -28.75 C 21.765625 -29.5625 20.132812 -30.125 18.84375 -30.4375 C 17.5625 -30.757812 16.296875 -30.921875 15.046875 -30.921875 C 13.566406 -30.921875 12.429688 -30.578125 11.640625 -29.890625 C 10.847656 -29.203125 10.453125 -28.300781 10.453125 -27.1875 C 10.453125 -26.5 10.609375 -25.894531 10.921875 -25.375 C 11.242188 -24.863281 11.753906 -24.367188 12.453125 -23.890625 C 13.148438 -23.410156 14.804688 -22.550781 17.421875 -21.3125 C 20.867188 -19.65625 23.234375 -18 24.515625 -16.34375 C 25.796875 -14.6875 26.4375 -12.65625 26.4375 -10.25 Z M 26.4375 -10.25 "/></g></g></g><g fill="#3b82f6" fill-opacity="1"><g transform="translate(40.441218, 54.387556)"><g><path d="M 27.234375 0 L 25.0625 -9.875 L 22.140625 -22.34375 L 21.96875 -22.34375 L 16.8125 0 L 8.53125 0 L 0.5 -28.21875 L 8.171875 -28.21875 L 11.4375 -15.734375 C 11.957031 -13.492188 12.488281 -10.40625 13.03125 -6.46875 L 13.171875 -6.46875 C 13.242188 -7.738281 13.539062 -9.765625 14.0625 -12.546875 L 14.46875 -14.6875 L 17.953125 -28.21875 L 26.4375 -28.21875 L 29.734375 -14.6875 C 29.804688 -14.320312 29.910156 -13.773438 30.046875 -13.046875 C 30.191406 -12.328125 30.332031 -11.554688 30.46875 -10.734375 C 30.601562 -9.921875 30.722656 -9.125 30.828125 -8.34375 C 30.941406 -7.5625 31.007812 -6.9375 31.03125 -6.46875 L 31.171875 -6.46875 C 31.328125 -7.675781 31.597656 -9.335938 31.984375 -11.453125 C 32.367188 -13.566406 32.644531 -14.992188 32.8125 -15.734375 L 36.203125 -28.21875 L 43.75 -28.21875 L 35.625 0 Z M 27.234375 0 "/></g></g></g><g fill="#3b82f6" fill-opacity="1"><g transform="translate(86.137777, 54.387556)"><g><path d="M 15.734375 -23.28125 C 14.097656 -23.28125 12.816406 -22.757812 11.890625 -21.71875 C 10.960938 -20.6875 10.429688 -19.21875 10.296875 -17.3125 L 21.109375 -17.3125 C 21.078125 -19.21875 20.578125 -20.6875 19.609375 -21.71875 C 18.648438 -22.757812 17.359375 -23.28125 15.734375 -23.28125 Z M 16.8125 0.5 C 12.269531 0.5 8.71875 -0.75 6.15625 -3.25 C 3.601562 -5.757812 2.328125 -9.3125 2.328125 -13.90625 C 2.328125 -18.632812 3.507812 -22.289062 5.875 -24.875 C 8.238281 -27.457031 11.503906 -28.75 15.671875 -28.75 C 19.660156 -28.75 22.765625 -27.613281 24.984375 -25.34375 C 27.210938 -23.070312 28.328125 -19.9375 28.328125 -15.9375 L 28.328125 -12.1875 L 10.125 -12.1875 C 10.207031 -10 10.851562 -8.289062 12.0625 -7.0625 C 13.28125 -5.832031 14.984375 -5.21875 17.171875 -5.21875 C 18.867188 -5.21875 20.472656 -5.394531 21.984375 -5.75 C 23.503906 -6.101562 25.085938 -6.671875 26.734375 -7.453125 L 26.734375 -1.484375 C 25.390625 -0.816406 23.953125 -0.320312 22.421875 0 C 20.890625 0.332031 19.019531 0.5 16.8125 0.5 Z M 16.8125 0.5 "/></g></g></g><g fill="#3b82f6" fill-opacity="1"><g transform="translate(118.127981, 54.387556)"><g><path d="M 15.734375 -23.28125 C 14.097656 -23.28125 12.816406 -22.757812 11.890625 -21.71875 C 10.960938 -20.6875 10.429688 -19.21875 10.296875 -17.3125 L 21.109375 -17.3125 C 21.078125 -19.21875 20.578125 -20.6875 19.609375 -21.71875 C 18.648438 -22.757812 17.359375 -23.28125 15.734375 -23.28125 Z M 16.8125 0.5 C 12.269531 0.5 8.71875 -0.75 6.15625 -3.25 C 3.601562 -5.757812 2.328125 -9.3125 2.328125 -13.90625 C 2.328125 -18.632812 3.507812 -22.289062 5.875 -24.875 C 8.238281 -27.457031 11.503906 -28.75 15.671875 -28.75 C 19.660156 -28.75 22.765625 -27.613281 24.984375 -25.34375 C 27.210938 -23.070312 28.328125 -19.9375 28.328125 -15.9375 L 28.328125 -12.1875 L 10.125 -12.1875 C 10.207031 -10 10.851562 -8.289062 12.0625 -7.0625 C 13.28125 -5.832031 14.984375 -5.21875 17.171875 -5.21875 C 18.867188 -5.21875 20.472656 -5.394531 21.984375 -5.75 C 23.503906 -6.101562 25.085938 -6.671875 26.734375 -7.453125 L 26.734375 -1.484375 C 25.390625 -0.816406 23.953125 -0.320312 22.421875 0 C 20.890625 0.332031 19.019531 0.5 16.8125 0.5 Z M 16.8125 0.5 "/></g></g></g><g fill="#3b82f6" fill-opacity="1"><g transform="translate(150.118186, 54.387556)"><g><path d="M 15.9375 -5.625 C 17.28125 -5.625 18.894531 -5.921875 20.78125 -6.515625 L 20.78125 -0.78125 C 18.863281 0.0703125 16.503906 0.5 13.703125 0.5 C 10.628906 0.5 8.390625 -0.273438 6.984375 -1.828125 C 5.578125 -3.390625 4.875 -5.726562 4.875 -8.84375 L 4.875 -22.4375 L 1.1875 -22.4375 L 1.1875 -25.703125 L 5.421875 -28.28125 L 7.65625 -34.234375 L 12.578125 -34.234375 L 12.578125 -28.21875 L 20.46875 -28.21875 L 20.46875 -22.4375 L 12.578125 -22.4375 L 12.578125 -8.84375 C 12.578125 -7.738281 12.882812 -6.925781 13.5 -6.40625 C 14.113281 -5.882812 14.925781 -5.625 15.9375 -5.625 Z M 15.9375 -5.625 "/></g></g></g><g fill="#3b82f6" fill-opacity="1"><g transform="translate(174.005733, 54.387556)"><g><path d="M 15.734375 -23.28125 C 14.097656 -23.28125 12.816406 -22.757812 11.890625 -21.71875 C 10.960938 -20.6875 10.429688 -19.21875 10.296875 -17.3125 L 21.109375 -17.3125 C 21.078125 -19.21875 20.578125 -20.6875 19.609375 -21.71875 C 18.648438 -22.757812 17.359375 -23.28125 15.734375 -23.28125 Z M 16.8125 0.5 C 12.269531 0.5 8.71875 -0.75 6.15625 -3.25 C 3.601562 -5.757812 2.328125 -9.3125 2.328125 -13.90625 C 2.328125 -18.632812 3.507812 -22.289062 5.875 -24.875 C 8.238281 -27.457031 11.503906 -28.75 15.671875 -28.75 C 19.660156 -28.75 22.765625 -27.613281 24.984375 -25.34375 C 27.210938 -23.070312 28.328125 -19.9375 28.328125 -15.9375 L 28.328125 -12.1875 L 10.125 -12.1875 C 10.207031 -10 10.851562 -8.289062 12.0625 -7.0625 C 13.28125 -5.832031 14.984375 -5.21875 17.171875 -5.21875 C 18.867188 -5.21875 20.472656 -5.394531 21.984375 -5.75 C 23.503906 -6.101562 25.085938 -6.671875 26.734375 -7.453125 L 26.734375 -1.484375 C 25.390625 -0.816406 23.953125 -0.320312 22.421875 0 C 20.890625 0.332031 19.019531 0.5 16.8125 0.5 Z M 16.8125 0.5 "/></g></g></g><g fill="#3b82f6" fill-opacity="1"><g transform="translate(205.995928, 54.387556)"><g><path d="M 19.796875 -28.75 C 20.835938 -28.75 21.703125 -28.675781 22.390625 -28.53125 L 21.8125 -21.3125 C 21.1875 -21.476562 20.429688 -21.5625 19.546875 -21.5625 C 17.085938 -21.5625 15.171875 -20.925781 13.796875 -19.65625 C 12.421875 -18.394531 11.734375 -16.628906 11.734375 -14.359375 L 11.734375 0 L 4.046875 0 L 4.046875 -28.21875 L 9.875 -28.21875 L 11 -23.484375 L 11.390625 -23.484375 C 12.265625 -25.066406 13.445312 -26.335938 14.9375 -27.296875 C 16.425781 -28.265625 18.046875 -28.75 19.796875 -28.75 Z M 19.796875 -28.75 "/></g></g></g></svg>